# xmcd CD database file
#
# Track frame offsets:
#	150
#	25333
#	39148
#	58250
#	70598
#	85530
#	97810
#	114883
#	142060
#
# Disc length: 2170 seconds
#
# Revision: 0
# Processed by: cddbd v1.4PL0 Copyright (c) Steve Scherf et al.
# Submitted via: CDex 1.40Beta9
#
DISCID=67087809
DTITLE=Mildred Anderson - No More In Life
DYEAR=1960
DGENRE=Blues
TTITLE0=Everybody's Got Somebody But Me
TTITLE1=I Ain't Mad At You
TTITLE2=Hard Times
TTITLE3=No More In Life
TTITLE4=Roll'em Pete
TTITLE5=What More Can A Woman Do
TTITLE6=That Ole Devil Called Love
TTITLE7=Mistreater
TTITLE8=I'm Lost
EXTD=YEAR: 1960 ID3G: 0
EXTT0=
EXTT1=
EXTT2=
EXTT3=
EXTT4=
EXTT5=
EXTT6=
EXTT7=
EXTT8=
PLAYORDER=
